<?xml version="1.0" standalone="no"?>
<!DOCTYPE svg PUBLIC "-//W3C//DTD SVG 20010904//EN"
 "http://www.w3.org/TR/2001/REC-SVG-20010904/DTD/svg10.dtd">
<svg version="1.0" xmlns="http://www.w3.org/2000/svg"
 width="1024.000000pt" height="1024.000000pt" viewBox="0 0 1024.000000 1024.000000"
 preserveAspectRatio="xMidYMid meet">

<g transform="translate(0.000000,1024.000000) scale(0.100000,-0.100000)"
fill="#000000" stroke="none">
<path d="M4995 8568 c-498 -56 -917 -389 -1084 -862 -37 -104 -61 -232 -61
-322 0 -35 -1 -64 -2 -64 -2 0 -32 10 -68 21 -83 27 -274 37 -389 20 -278 -41
-522 -215 -660 -473 -56 -102 -78 -171 -97 -301 -45 -307 48 -577 277 -806 82
-82 145 -124 266 -176 139 -60 195 -65 767 -65 l511 0 79 148 c44 81 94 171
111 199 l32 53 814 2 c681 1 813 -1 811 -12 -2 -8 -29 -61 -61 -119 -71 -129
-141 -262 -141 -268 0 -2 183 -3 408 -1 l407 4 88 27 c367 113 613 410 658
793 26 215 -46 462 -186 644 -108 141 -271 257 -442 316 -106 37 -149 42 -167
20 -60 -74 -136 -177 -136 -183 0 -5 16 -25 36 -44 62 -58 150 -183 178 -254
26 -65 51 -232 39 -262 -4 -10 -46 -13 -173 -13 l-168 0 -7 53 c-32 244 -290
383 -515 276 -170 -80 -251 -280 -183 -451 14 -34 14 -41 -1 -62 -16 -25 -17
-25 -176 -24 l-160 1 -18 56 c-12 41 -17 89 -16 176 0 102 5 132 27 200 51
154 147 280 282 370 160 107 342 144 528 109 l27 -6 0 102 c0 335 -196 699
-496 921 -279 206 -604 295 -939 257z"/>
<path d="M4852 5598 c-5 -7 -40 -71 -78 -143 -37 -71 -84 -159 -104 -195 -21
-36 -88 -162 -150 -280 -62 -118 -145 -276 -185 -350 -40 -74 -87 -163 -104
-197 l-31 -63 360 0 359 0 -31 -57 c-17 -32 -57 -105 -88 -163 -31 -58 -83
-154 -115 -215 -32 -60 -81 -153 -110 -205 -96 -172 -255 -473 -255 -482 0 -4
150 -9 332 -10 l333 -3 31 -230 c53 -384 104 -779 104 -802 0 -57 7 -46 280
422 84 143 236 406 338 585 102 179 206 361 232 405 l48 80 -308 5 -308 5 63
110 c34 61 182 320 329 578 146 257 266 470 266 473 0 4 -151 4 -335 1 -184
-3 -335 -2 -335 1 0 8 138 267 269 506 67 121 121 224 121 228 0 4 -206 8
-459 8 -355 0 -461 -3 -469 -12z"/>
<path d="M3467 4963 c-140 -356 -179 -455 -197 -508 -10 -27 -21 -58 -25 -67
-7 -17 4 -18 149 -18 86 0 156 -2 156 -4 0 -1 -21 -52 -46 -112 -82 -194 -132
-324 -125 -327 3 -1 66 -1 139 1 114 3 134 6 139 20 3 9 70 179 149 377 78
198 144 366 146 373 2 11 -28 13 -149 12 -84 0 -153 2 -153 6 0 8 131 350 159
417 l20 47 -138 0 -138 0 -86 -217z"/>
<path d="M6556 5153 c-7 -16 -47 -107 -88 -203 -175 -407 -222 -517 -235 -548
l-14 -34 161 4 c88 1 160 2 160 1 0 0 -40 -99 -90 -218 -49 -119 -90 -219 -90
-221 0 -2 60 -4 133 -4 l134 0 21 48 c12 26 73 169 136 317 63 149 128 299
144 335 17 36 30 69 31 73 1 5 -69 8 -154 8 -85 -1 -155 0 -155 3 0 7 158 394
176 430 8 16 14 31 14 33 0 1 -61 3 -135 3 l-134 0 -15 -27z"/>
<path d="M4505 1679 c-581 -17 -1052 -65 -1160 -116 -39 -19 -55 -54 -35 -78
20 -24 129 -53 278 -75 346 -50 1369 -81 2029 -62 827 24 1221 62 1320 128 55
35 0 92 -115 118 -325 74 -1391 113 -2317 85z"/>
</g>
</svg>
